<svg width="120" height="120" viewBox="0 0 120 120" fill="none" xmlns="http://www.w3.org/2000/svg">
  <rect x="4" y="4" width="112" height="112" rx="24" fill="#0EA47A" />
  <rect x="30" y="32" width="60" height="28" rx="6" fill="white" />
  <rect x="38" y="42" width="28" height="8" rx="2" fill="#0EA47A" />
  <rect x="72" y="42" width="10" height="8" rx="2" fill="#0EA47A" />
  <path d="M60 70C51.1634 70 44 77.1634 44 86V94H52V88C52 83.5817 55.5817 80 60 80C64.4183 80 68 83.5817 68 88V94H76V86C76 77.1634 68.8366 70 60 70Z" fill="white" />
  <path d="M48 90C48 95.5228 43.5228 100 38 100C32.4772 100 28 95.5228 28 90C28 84.4772 32.4772 80 38 80C42.4183 80 46 83.5817 46 88V100H38C42.4183 100 46 95.5228 46 90Z" fill="white" />
  <path d="M92 90C92 95.5228 87.5228 100 82 100C76.4772 100 72 95.5228 72 90V88C72 83.5817 75.5817 80 80 80C84.4183 80 88 83.5817 88 88V100H80C84.4183 100 88 95.5228 88 90Z" fill="white" />
</svg>
